<svg id="Слой_1" data-name="Слой 1" xmlns="http://www.w3.org/2000/svg" viewBox="0 0 150 190"><defs><style>.cls-1{fill-rule:evenodd;}</style></defs><title>Монтажная область 4</title><path class="cls-1" d="M90.62,147.24c-10.32,0-25-.52-34.79-.52-18.31,0-23.28-10.83-23.28-24.6s.27-29,.27-34.22c0-15.47,6.85-24.06,23.83-24.06,6.28,0,29.9-.06,37.94-.06,15.45,0,22.86,6.38,22.86,25.06,0,4.61-.34,13.24-.34,37.17C117.11,141.06,110,147.24,90.62,147.24Zm14.83-46L75.9,99.91,76,113l17.13-1.06c-2.1,6.5-7.56,11.74-16.37,11.74-25.3,0-24.16-36.16-.4-36.16A17.12,17.12,0,0,1,89,92.4l8.31-8.5C92.42,79,85.52,75.84,76.53,75.84c-39.11,0-41,59.52.66,59.52C98.06,135.36,107.56,117.45,105.45,101.28Z"/></svg>